Coordinates
version=1
nRows=16
nColumns=40
inDegrees=yes

Units are S.I. units (second, meters, Newtons, ...)
If the header above contains a line with 'inDegrees', this indicates whether rotational values are in degrees (yes) or radians (no).

endheader
time	pelvis_tilt	pelvis_list	pelvis_rotation	pelvis_tx	pelvis_ty	pelvis_tz	hip_flexion_r	hip_adduction_r	hip_rotation_r	knee_angle_r	knee_angle_r_beta	ankle_angle_r	subtalar_angle_r	mtp_angle_r	hip_flexion_l	hip_adduction_l	hip_rotation_l	knee_angle_l	knee_angle_l_beta	ankle_angle_l	subtalar_angle_l	mtp_angle_l	lumbar_extension	lumbar_bending	lumbar_rotation	arm_flex_r	arm_add_r	arm_rot_r	elbow_flex_r	pro_sup_r	wrist_flex_r	wrist_dev_r	arm_flex_l	arm_add_l	arm_rot_l	elbow_flex_l	pro_sup_l	wrist_flex_l	wrist_dev_l
      3.07500000	    -26.78198611	     -7.42373029	     -3.41909154	     -0.37229899	      0.73377248	     -0.73323986	     80.08630080	     13.79238915	     -5.58404456	     85.87447207	      1.49879228	     29.53752020	      0.00000000	      0.00000000	     31.07461572	     -6.97805460	      7.86596253	     99.29997142	      1.73311145	     -5.99967986	      0.00000000	      0.00000000	    -17.88410167	      8.52597379	      6.40318342	     89.94020408	    -12.83815293	      9.39647153	     57.37550558	     85.30931194	      0.00000000	      0.00000000	     89.94528544	     -5.51019786	      8.00660840	     55.07369412	     83.55679842	      0.00000000	      0.00000000
      3.08000000	    -26.81768240	     -7.36117405	     -3.40073834	     -0.37226701	      0.73339692	     -0.73335282	     80.18346518	     13.78354936	     -5.46948874	     85.97297220	      1.50051143	     29.24209023	      0.00000000	      0.00000000	     31.09609275	     -6.87523976	      7.83297244	     99.33193862	      1.73366938	     -5.76401562	      0.00000000	      0.00000000	    -17.85551235	      8.45277214	      6.38095495	     89.94014484	    -12.80711188	      9.08971440	     57.20210199	     86.63756341	      0.00000000	      0.00000000	     89.94555588	     -5.38495015	      7.75117885	     55.04040155	     84.99673649	      0.00000000	      0.00000000
      3.08500000	    -26.85174014	     -7.37528742	     -3.36265994	     -0.37219075	      0.73300639	     -0.73333811	     80.27166788	     13.81550097	     -5.43921822	     86.06125308	      1.50205222	     29.37117669	      0.00000000	      0.00000000	     31.11976420	     -6.83638051	      7.90528203	     99.32042888	      1.73346850	     -5.83885927	      0.00000000	      0.00000000	    -17.85697577	      8.48089709	      6.32092428	     89.94036938	    -12.77695444	      9.06322174	     57.33019735	     86.60539026	      0.00000000	      0.00000000	     89.94564242	     -5.43124181	      7.75019664	     55.06245994	     85.10086307	      0.00000000	      0.00000000
      3.09000000	    -26.87178943	     -7.38044809	     -3.34151727	     -0.37210703	      0.73269858	     -0.73331009	     80.31989142	     13.84752426	     -5.40429924	     86.10781559	      1.50286489	     29.42591366	      0.00000000	      0.00000000	     31.14087253	     -6.81105273	      7.94056973	     99.33763428	      1.73376879	     -5.85228229	      0.00000000	      0.00000000	    -17.87137544	      8.47093840	      6.29120788	     89.94057064	    -12.78326290	      9.02265991	     57.35772118	     86.62323043	      0.00000000	      0.00000000	     89.94584470	     -5.41046648	      7.74336464	     55.10648643	     84.87507350	      0.00000000	      0.00000000
      3.09500000	    -26.86282703	     -7.41192816	     -3.26458364	     -0.37199986	      0.73249477	     -0.73334468	     80.33527141	     13.86964340	     -5.35461136	     86.15459853	      1.50368141	     29.48420549	      0.00000000	      0.00000000	     31.13690271	     -6.78039922	      8.03232989	     99.32952787	      1.73362731	     -5.89595502	      0.00000000	      0.00000000	    -17.91834542	      8.50244289	      6.21151105	     89.94066759	    -12.77299308	      9.00644971	     57.39021354	     86.54237037	      0.00000000	      0.00000000	     89.94598725	     -5.40993874	      7.66629940	     55.18605621	     85.29644376	      0.00000000	      0.00000000
      3.10000000	    -26.86028975	     -7.46430048	     -3.22210866	     -0.37186383	      0.73215626	     -0.73334259	     80.36335636	     13.88135217	     -5.39646977	     86.21048399	      1.50465680	     29.54664726	      0.00000000	      0.00000000	     31.12630115	     -6.79237987	      8.08889249	     99.34968701	      1.73397915	     -5.90879207	      0.00000000	      0.00000000	    -17.94815048	      8.54981524	      6.20086336	     89.94075225	    -12.80252896	      8.96486528	     57.41949131	     86.59995863	      0.00000000	      0.00000000	     89.94609466	     -5.36853736	      7.64925114	     55.20295970	     85.09576829	      0.00000000	      0.00000000
      3.10500000	    -26.86005782	     -7.55718962	     -3.14467337	     -0.37169622	      0.73187670	     -0.73340996	     80.39709277	     13.90166439	     -5.43512333	     86.26593390	      1.50562458	     29.59528247	      0.00000000	      0.00000000	     31.13408755	     -6.82054916	      8.20883881	     99.36723612	      1.73428544	     -5.93487513	      0.00000000	      0.00000000	    -17.97823899	      8.65493044	      6.15950901	     89.94089611	    -12.81557653	      8.93933175	     57.44362708	     86.57162611	      0.00000000	      0.00000000	     89.94614903	     -5.32212214	      7.58433429	     55.22805462	     85.20747239	      0.00000000	      0.00000000
      3.11000000	    -26.88778889	     -7.56570846	     -3.11172746	     -0.37163858	      0.73150250	     -0.73345692	     80.46359802	     13.91144836	     -5.40991441	     86.33464623	      1.50682384	     29.63309984	      0.00000000	      0.00000000	     31.16747057	     -6.78371529	      8.24838791	     99.39482825	      1.73476701	     -5.95760863	      0.00000000	      0.00000000	    -17.97256485	      8.66076326	      6.12034843	     89.94103191	    -12.81366559	      8.87008106	     57.45715014	     86.58315279	      0.00000000	      0.00000000	     89.94627231	     -5.29245059	      7.54503201	     55.25971920	     85.13841700	      0.00000000	      0.00000000
      3.11500000	    -26.92902374	     -7.61568050	     -3.05999803	     -0.37156539	      0.73114164	     -0.73346921	     80.54860590	     13.91262608	     -5.42712586	     86.40118745	      1.50798520	     29.65730647	      0.00000000	      0.00000000	     31.21722428	     -6.77962389	      8.32927842	     99.42314519	      1.73526124	     -5.95208129	      0.00000000	      0.00000000	    -17.95173922	      8.70690818	      6.08654792	     89.94108436	    -12.84560855	      8.81555562	     57.45493141	     86.58006717	      0.00000000	      0.00000000	     89.94629099	     -5.25956964	      7.54806366	     55.26966212	     84.97365393	      0.00000000	      0.00000000
      3.12000000	    -26.90514170	     -7.71151095	     -3.00299085	     -0.37138899	      0.73090375	     -0.73347247	     80.54502401	     13.92796553	     -5.50919265	     86.44333092	      1.50872074	     29.70279585	      0.00000000	      0.00000000	     31.18362655	     -6.84569521	      8.40192034	     99.43226739	      1.73542045	     -5.94218927	      0.00000000	      0.00000000	    -18.01465679	      8.80395615	      6.07399889	     89.94125904	    -12.84248361	      8.72373746	     57.48105628	     86.52952946	      0.00000000	      0.00000000	     89.94651986	     -5.21456017	      7.49050786	     55.29660381	     84.85112522	      0.00000000	      0.00000000
      3.12500000	    -26.91800376	     -7.70711817	     -2.96042636	     -0.37125882	      0.73062008	     -0.73359630	     80.56811094	     13.89836419	     -5.51137116	     86.48879988	      1.50951432	     29.78127975	      0.00000000	      0.00000000	     31.19202321	     -6.77539106	      8.42648771	     99.44387050	      1.73562296	     -5.95989887	      0.00000000	      0.00000000	    -18.03576923	      8.80995473	      6.01499763	     89.94133228	    -12.85274808	      8.71086714	     57.54577645	     86.39216338	      0.00000000	      0.00000000	     89.94645590	     -5.22829374	      7.48934108	     55.38967440	     84.77629081	      0.00000000	      0.00000000
      3.13000000	    -26.90940548	     -7.78274406	     -2.90204789	     -0.37111077	      0.73033397	     -0.73356844	     80.60107147	     13.92001798	     -5.53389988	     86.55770804	      1.51071700	     29.79682523	      0.00000000	      0.00000000	     31.17034511	     -6.81835104	      8.51944226	     99.45093804	      1.73574631	     -5.94139142	      0.00000000	      0.00000000	    -18.06555666	      8.87637914	      5.99900362	     89.94149991	    -12.85749153	      8.66912324	     57.54165357	     86.56597255	      0.00000000	      0.00000000	     89.94653422	     -5.18723099	      7.44905452	     55.38210682	     85.13207583	      0.00000000	      0.00000000
      3.13500000	    -26.94795661	     -7.79173114	     -2.87652015	     -0.37104613	      0.72996875	     -0.73357896	     80.67945206	     13.92807222	     -5.51202916	     86.62905810	      1.51196229	     29.82376914	      0.00000000	      0.00000000	     31.20744407	     -6.80969698	      8.52729663	     99.47154353	      1.73610595	     -5.90459264	      0.00000000	      0.00000000	    -18.04634584	      8.87932768	      5.97752378	     89.94157386	    -12.86254427	      8.61044557	     57.55815674	     86.58867406	      0.00000000	      0.00000000	     89.94667293	     -5.13299131	      7.43373282	     55.39793645	     84.73267803	      0.00000000	      0.00000000
      3.14000000	    -26.96164617	     -7.82388619	     -2.82871966	     -0.37091601	      0.72968456	     -0.73362829	     80.71507961	     13.90094291	     -5.53973799	     86.67805738	      1.51281749	     29.84701328	      0.00000000	      0.00000000	     31.20427034	     -6.77065601	      8.60670527	     99.47188183	      1.73611185	     -5.92517596	      0.00000000	      0.00000000	    -18.05540055	      8.91927164	      5.93921712	     89.94172104	    -12.87265303	      8.60627950	     57.57862379	     86.58832713	      0.00000000	      0.00000000	     89.94670955	     -5.14106056	      7.40500342	     55.41158726	     85.08193438	      0.00000000	      0.00000000
      3.14500000	    -27.00885877	     -7.82413301	     -2.81543803	     -0.37090547	      0.72929856	     -0.73363376	     80.80241961	     13.90111802	     -5.53099049	     86.74384616	      1.51396572	     29.87271973	      0.00000000	      0.00000000	     31.25391479	     -6.74298541	      8.61571113	     99.50316748	      1.73665789	     -5.91998831	      0.00000000	      0.00000000	    -18.02491534	      8.91033803	      5.93544326	     89.94176685	    -12.88540375	      8.55793953	     57.58868359	     86.59711623	      0.00000000	      0.00000000	     89.94674427	     -5.10089403	      7.40492789	     55.43366127	     84.98791225	      0.00000000	      0.00000000
      3.15000000	    -27.03547534	     -7.85314908	     -2.77312955	     -0.37082195	      0.72898643	     -0.73370168	     80.85758170	     13.87205112	     -5.55511250	     86.80076218	      1.51495909	     29.89139432	      0.00000000	      0.00000000	     31.27336128	     -6.72875256	      8.65946567	     99.51086956	      1.73679232	     -5.91427305	      0.00000000	      0.00000000	    -18.01950308	      8.94858978	      5.90842938	     89.94188125	    -12.89001193	      8.53227098	     57.59946966	     86.51804249	      0.00000000	      0.00000000	     89.94680556	     -5.10019600	      7.38146963	     55.44121457	     85.27080180	      0.00000000	      0.00000000
